<?xml version="1.0" encoding="UTF-8" standalone="no"?>
<!-- Created with Inkscape (http://www.inkscape.org/) -->

<svg
   width="38.777134mm"
   height="38.777134mm"
   viewBox="0 0 38.777134 38.777134"
   version="1.1"
   id="svg5"
   inkscape:version="1.2 (dc2aedaf03, 2022-05-15)"
   sodipodi:docname="target.svg"
   xmlns:inkscape="http://www.inkscape.org/namespaces/inkscape"
   xmlns:sodipodi="http://sodipodi.sourceforge.net/DTD/sodipodi-0.dtd"
   xmlns="http://www.w3.org/2000/svg"
   xmlns:svg="http://www.w3.org/2000/svg">
  <sodipodi:namedview
     id="namedview7"
     pagecolor="#ffffff"
     bordercolor="#000000"
     borderopacity="0.25"
     inkscape:showpageshadow="2"
     inkscape:pageopacity="0.0"
     inkscape:pagecheckerboard="0"
     inkscape:deskcolor="#d1d1d1"
     inkscape:document-units="mm"
     showgrid="false"
     inkscape:zoom="2.078763"
     inkscape:cx="28.382264"
     inkscape:cy="111.60483"
     inkscape:window-width="1920"
     inkscape:window-height="1005"
     inkscape:window-x="0"
     inkscape:window-y="0"
     inkscape:window-maximized="1"
     inkscape:current-layer="layer1" />
  <defs
     id="defs2" />
  <g
     inkscape:label="Layer 1"
     inkscape:groupmode="layer"
     id="layer1"
     transform="translate(-67.737975,-41.936999)">
    <path
       id="path234"
       style="font-variation-settings:'wght' 400;fill:#ff0000;fill-opacity:0.998383;stroke:none;stroke-width:0.734514;stroke-linecap:round;stroke-opacity:0.639072"
       inkscape:label="body"
       d="M 87.126456 43.751359 A 17.574387 17.574387 0 0 0 69.552335 61.32548 A 17.574387 17.574387 0 0 0 87.126456 78.900117 A 17.574387 17.574387 0 0 0 104.70109 61.32548 A 17.574387 17.574387 0 0 0 87.126456 43.751359 z M 87.126456 48.057039 A 13.268738 13.268738 0 0 1 100.39541 61.32548 A 13.268738 13.268738 0 0 1 87.126456 74.594437 A 13.268738 13.268738 0 0 1 73.858015 61.32548 A 13.268738 13.268738 0 0 1 87.126456 48.057039 z " />
    <circle
       style="font-variation-settings:'wght' 400;fill:#ff0000;fill-opacity:0.998383;stroke:none;stroke-width:0.79375;stroke-linecap:round;stroke-opacity:0.639072"
       id="path6418"
       cx="87.126709"
       cy="61.325737"
       r="3.5477858" />
  </g>
</svg>
